<?xml version="1.0" encoding="UTF-8" standalone="no"?>
<svg
   viewBox="0 0 1860 406"
   font-family="Inter, 'Helvetica Neue', Arial, sans-serif"
   version="1.1"
   id="svg4"
   sodipodi:docname="header.svg"
   inkscape:version="1.4 (e7c3feb1, 2024-10-09)"
   width="1860"
   height="406"
   inkscape:export-filename="LogoRounded.png"
   inkscape:export-xdpi="96"
   inkscape:export-ydpi="96"
   xmlns:inkscape="http://www.inkscape.org/namespaces/inkscape"
   xmlns:sodipodi="http://sodipodi.sourceforge.net/DTD/sodipodi-0.dtd"
   xmlns:xlink="http://www.w3.org/1999/xlink"
   xmlns="http://www.w3.org/2000/svg"
   xmlns:svg="http://www.w3.org/2000/svg">
  <sodipodi:namedview
     id="namedview4"
     pagecolor="#ffffff"
     bordercolor="#000000"
     borderopacity="0.25"
     inkscape:showpageshadow="2"
     inkscape:pageopacity="0.0"
     inkscape:pagecheckerboard="0"
     inkscape:deskcolor="#d1d1d1"
     inkscape:zoom="1.0262875"
     inkscape:cx="1333.9342"
     inkscape:cy="286.46943"
     inkscape:window-width="1440"
     inkscape:window-height="771"
     inkscape:window-x="0"
     inkscape:window-y="25"
     inkscape:window-maximized="1"
     inkscape:current-layer="g18" />
  <defs
     id="defs2">
    <linearGradient
       id="linearGradient4"
       inkscape:collect="always">
      <stop
         style="stop-color:#000000;stop-opacity:1;"
         offset="0"
         id="stop4" />
      <stop
         style="stop-color:#000000;stop-opacity:0;"
         offset="1"
         id="stop5" />
    </linearGradient>
    <linearGradient
       id="bg"
       x1="0"
       y1="0"
       x2="1000"
       y2="1000"
       gradientUnits="userSpaceOnUse"
       gradientTransform="scale(1.024)">
      <stop
         offset="0%"
         stop-color="#22b8cf"
         id="stop1" />
      <stop
         offset="100%"
         stop-color="#0ca678"
         id="stop2" />
    </linearGradient>
    <radialGradient
       inkscape:collect="always"
       xlink:href="#linearGradient4"
       id="radialGradient1"
       cx="499.93454"
       cy="669.39905"
       fx="499.93454"
       fy="669.39905"
       r="265.26312"
       gradientTransform="matrix(1,0,0,0.23586917,0,511.50844)"
       gradientUnits="userSpaceOnUse"
       spreadMethod="pad" />
    <radialGradient
       inkscape:collect="always"
       xlink:href="#linearGradient4"
       id="radialGradient2"
       cx="499.93454"
       cy="669.39905"
       fx="499.93454"
       fy="669.39905"
       r="265.26312"
       gradientTransform="matrix(1,0,0,0.23586917,0,511.50844)"
       gradientUnits="userSpaceOnUse"
       spreadMethod="pad" />
    <radialGradient
       inkscape:collect="always"
       xlink:href="#linearGradient4"
       id="radialGradient1-6"
       cx="499.93454"
       cy="669.39905"
       fx="499.93454"
       fy="669.39905"
       r="265.26312"
       gradientTransform="matrix(1,0,0,0.23586917,0,511.50844)"
       gradientUnits="userSpaceOnUse"
       spreadMethod="pad" />
    <radialGradient
       inkscape:collect="always"
       xlink:href="#linearGradient4"
       id="radialGradient2-6"
       cx="499.93454"
       cy="669.39905"
       fx="499.93454"
       fy="669.39905"
       r="265.26312"
       gradientTransform="matrix(1,0,0,0.23586917,0,511.50844)"
       gradientUnits="userSpaceOnUse"
       spreadMethod="pad" />
    <linearGradient
       inkscape:collect="always"
       xlink:href="#bg"
       id="linearGradient7"
       x1="469.43573"
       y1="670.39093"
       x2="765.19763"
       y2="670.39093"
       gradientUnits="userSpaceOnUse"
       gradientTransform="translate(-4.0296533e-7,-2.2715692)" />
    <linearGradient
       inkscape:collect="always"
       xlink:href="#bg"
       id="linearGradient16"
       x1="0"
       y1="121.25"
       x2="396"
       y2="121.25"
       gradientUnits="userSpaceOnUse" />
    <linearGradient
       inkscape:collect="always"
       xlink:href="#bg"
       id="linearGradient17"
       gradientUnits="userSpaceOnUse"
       x1="0"
       y1="121.25"
       x2="396"
       y2="121.25" />
    <linearGradient
       inkscape:collect="always"
       xlink:href="#bg"
       id="linearGradient18"
       gradientUnits="userSpaceOnUse"
       x1="0"
       y1="121.25"
       x2="396"
       y2="121.25" />
  </defs>
  <!-- Square gradient background -->
  <!--
    Wordmark HUEAT: font-size 160, ~5 chars wide ≈ 460px wide, centered at x=500
    so it spans roughly x=270 → x=730 (width 460)
    Mountain should match that width: 460px wide, centered horizontally
    Height proportional: keeping the original aspect (~215w x 90h ≈ 0.42 ratio)
    → 460w x ~195h
    Place mountain vertically centered in upper half
  -->
  <!-- Mountains, centered, scaled to match wordmark width -->
  <!-- Wordmark HUEAT -->
  <g
     id="g20"
     transform="translate(21.544068,-0.49882837)">
    <g
       id="g4"
       transform="matrix(1.024,0,0,1.024,0,41.9982)">
      <g
         id="g18"
         transform="matrix(1.7196263,0,0,1.7196263,448.70837,-948.98896)">
        <path
           d="M 469.43572,729.69495 V 606.54368 h 88.35484 v 21.82009 H 494.8925 v 28.51489 h 58.1869 v 21.24153 h -58.1869 v 29.75467 h 62.89806 v 21.82009 z m 91.47107,0 43.22692,-123.15127 h 32.73014 l 43.22692,123.15127 h -28.18429 l -19.34053,-59.9226 q -3.55403,-11.81921 -7.35601,-24.29964 -3.71934,-12.56308 -8.09989,-28.51489 h 7.02541 q -4.54585,15.95181 -8.34784,28.51489 -3.71933,12.48043 -7.43866,24.29964 l -20.00175,59.9226 z m 27.44042,-26.86186 V 682.50074 H 652.733 v 20.33235 z m 76.75904,-74.46932 v -21.82009 h 100.0914 v 21.82009 H 727.92166 V 729.69495 H 702.46489 V 628.36377 Z"
           id="text4-7"
           style="font-weight:bold;font-size:169.271px;font-family:Inter;-inkscape-font-specification:'Inter Bold';letter-spacing:-3;text-anchor:middle;fill:url(#linearGradient7)"
           aria-label="EAT" />
        <path
           d="M 234.67142,729.98291 V 606.83165 h 25.45677 v 49.42581 h 52.31862 v -49.42581 h 25.37412 v 123.15126 h -25.37412 v -51.90536 h -52.31862 v 51.90536 z m 168.99851,1.98364 q -15.37325,0 -26.7792,-5.62032 -11.32331,-5.70298 -17.60485,-15.78651 -6.28154,-10.16617 -6.28154,-23.47312 v -80.25495 h 24.87821 v 78.18865 q 0,7.27336 3.14077,12.89369 3.22342,5.62033 9.00905,8.84375 5.86828,3.22342 13.63756,3.22342 7.85192,0 13.63755,-3.22342 5.78563,-3.22342 9.00905,-8.84375 3.22343,-5.62033 3.22343,-12.89369 v -78.18865 h 24.87821 v 80.25495 q 0,13.30695 -6.28155,23.47312 -6.28154,10.08353 -17.68749,15.78651 -11.40596,5.62032 -26.7792,5.62032 z"
           id="text4-3"
           style="font-weight:bold;font-size:169.271px;font-family:Inter;-inkscape-font-specification:'Inter Bold';letter-spacing:-3;text-anchor:middle"
           aria-label="HU" />
      </g>
    </g>
    <g
       transform="matrix(2.0639875,0,0,2.0639875,10,-46.759656)"
       id="g3"
       style="fill:url(#linearGradient16)">
      <!-- Back range (lighter) -->
      <path
         d="M 0,195 107,45 q 11,-15 21,0 l 75,96 86,-106 q 11,-15 22,0 l 85,160 z"
         fill="#ffffff"
         opacity="0.55"
         id="path2"
         style="fill:url(#linearGradient17)" />
      <!-- Front range (solid white) -->
      <path
         d="M 0,215 86,97 q 10,-15 21,0 l 64,86 75,-108 q 11,-15 22,0 l 128,140 z"
         fill="#ffffff"
         id="path3"
         style="fill:url(#linearGradient18)" />
    </g>
  </g>
</svg>
